<!-- Copyright 2000-2025 JetBrains s.r.o. and contributors. Use of this source code is governed by the Apache 2.0 license. -->
<svg width="16" height="16" viewBox="0 0 16 16" fill="none" xmlns="http://www.w3.org/2000/svg">
    <path d="M11 2C11.5523 2 12 2.44772 12 3V9H11C10.4477 9 10 9.44772 10 10V14H5C4.44772 14 4 13.5523 4 13V6H6C7.10457 6 8 5.10457 8 4V2H11Z" fill="#402929"/>

    <path d="M7 4C7 4.06893 6.99277 4.13617 6.97949 4.20117C6.88625 4.65686 6.48325 5 6 5H4.41406L7 2.41406V4Z" fill="#402929"/>

    <path fill-rule="evenodd" clip-rule="evenodd" d="M11 1C12.1046 1 13 1.89543 13 3V9H12V3C12 2.44772 11.5523 2 11 2H8V4C8 5.10457 7.10457 6 6 6H4V13C4 13.5523 4.44772 14 5 14H10V15H5C3.89543 15 3 14.1046 3 13V5.41406C3.00004 5.1489 3.10547 4.89453 3.29297 4.70703L6.70703 1.29297C6.89453 1.10547 7.1489 1.00004 7.41406 1H11ZM4.41406 5H6C6.55228 5 7 4.55228 7 4V2.41406L4.41406 5Z" fill="#DB5C5C"/>

    <!-- M -->
    <path d="M10.2 16V10H11.25L12.55 13.45L13.85 10H14.9V16H14.05V11.55L12.95 14.45H12.15L11.05 11.55V16H10.2Z" fill="#CED0D6"/>
</svg>
